HIERARCHY
ROOT Pelvis
{
	OFFSET -0.217368 -24.078917 2.858379
	CHANNELS 6 Xposition Yposition Zposition Zrotation Yrotation Xrotation 
	JOINT Left_hip
	{
		OFFSET 5.858135 -8.228005 -1.766408
		CHANNELS 3 Zrotation Yrotation Xrotation
		JOINT Left_knee
		{
			OFFSET 4.345143 -38.646942 0.803700
			CHANNELS 3 Zrotation Yrotation Xrotation
			JOINT Left_ankle
			{
				OFFSET -1.479033 -42.687447 -3.742800
				CHANNELS 3 Zrotation Yrotation Xrotation
				JOINT Left_foot
				{
					OFFSET 4.105436 -6.028605 12.204244
					CHANNELS 3 Zrotation Yrotation Xrotation
					End Site
					{
						OFFSET 0.000000 0.000000 0.000000
					}
				}
			}
		}
	}
	JOINT Right_hip
	{
		OFFSET -6.030973 -9.051328 -1.354253
		CHANNELS 3 Zrotation Yrotation Xrotation
		JOINT Right_knee
		{
			OFFSET -4.325663 -38.368790 -0.484304
			CHANNELS 3 Zrotation Yrotation Xrotation
			JOINT Right_ankle
			{
				OFFSET 1.905555 -42.004566 -3.456167
				CHANNELS 3 Zrotation Yrotation Xrotation
				JOINT Right_foot
				{
					OFFSET -3.483987 -6.210554 13.032330
					CHANNELS 3 Zrotation Yrotation Xrotation
					End Site
					{
						OFFSET 0.000000 0.000000 0.000000
					}
				}
			}
		}
	}
	JOINT Spine1
	{
		OFFSET 0.443945 12.440353 -3.838522
		CHANNELS 3 Zrotation Yrotation Xrotation
		JOINT Spine2
		{
			OFFSET 0.448844 13.795640 2.682033
			CHANNELS 3 Zrotation Yrotation Xrotation
			JOINT Spine3
			{
				OFFSET -0.226460 5.603239 0.285504
				CHANNELS 3 Zrotation Yrotation Xrotation
				JOINT Neck
				{
					OFFSET -1.339018 21.163553 -3.346758
					CHANNELS 3 Zrotation Yrotation Xrotation
					JOINT Head
					{
						OFFSET 1.011321 8.893734 5.040987
						CHANNELS 3 Zrotation Yrotation Xrotation
						End Site
						{
							OFFSET 0.000000 0.000000 0.000000
						}
					}
				}
				JOINT Left_collar
				{
					OFFSET 7.170247 11.399971 -1.889817
					CHANNELS 3 Zrotation Yrotation Xrotation
					JOINT Left_shoulder
					{
						OFFSET 12.292140 4.520507 -1.904600
						CHANNELS 3 Zrotation Yrotation Xrotation
						JOINT Left_elbow
						{
							OFFSET 25.533188 -1.564902 -2.294648
							CHANNELS 3 Zrotation Yrotation Xrotation
							JOINT Left_wrist
							{
								OFFSET 26.570929 1.269810 -0.737473
								CHANNELS 3 Zrotation Yrotation Xrotation
								JOINT Left_palm
								{
									OFFSET 8.669054 -1.063602 -1.559429
									CHANNELS 3 Zrotation Yrotation Xrotation
									End Site
									{
										OFFSET 0.000000 0.000000 0.000000
									}
								}
							}
						}
					}
				}
				JOINT Right_collar
				{
					OFFSET -8.295364 11.247234 -2.370738
					CHANNELS 3 Zrotation Yrotation Xrotation
					JOINT Right_shoulder
					{
						OFFSET -11.322830 4.685326 -0.847207
						CHANNELS 3 Zrotation Yrotation Xrotation
						JOINT Right_elbow
						{
							OFFSET -26.012751 -1.436928 -3.126872
							CHANNELS 3 Zrotation Yrotation Xrotation
							JOINT Right_wrist
							{
								OFFSET -26.910841 0.679372 -0.602677
								CHANNELS 3 Zrotation Yrotation Xrotation
								JOINT Right_palm
								{
									OFFSET -8.875370 -0.865157 -1.010708
									CHANNELS 3 Zrotation Yrotation Xrotation
									End Site
									{
										OFFSET 0.000000 0.000000 0.000000
									}
								}
							}
						}
					}
				}
			}
		}
	}
}
MOTION
Frames: 9
Frame Time: 0.016667
-6.685391 72.071243 232.370621 175.824681 38.586660 178.434523 2.940601 -2.043286 -30.010431 -9.563559 2.141460 21.015683 4.699682 12.903063 16.467770 0.000000 0.000000 0.000000 -10.210616 0.023508 19.733357 -3.224655 1.066980 10.485234 16.075031 19.523410 20.698776 0.000000 0.000000 0.000000 1.985597 -0.355769 5.842471 -3.215357 1.431169 -19.411747 3.320768 27.342356 24.989531 9.943105 -5.136852 -13.585949 0.000000 0.000000 0.000000 -17.164597 4.893917 -4.267871 -57.543657 11.891916 -12.121690 -5.607865 -17.239197 1.454626 0.000000 0.000000 0.000000 0.000000 0.000000 0.000000 22.825541 1.511782 -1.477179 59.065702 15.108316 2.293749 -3.307361 35.110774 0.134361 0.000000 0.000000 0.000000 0.000000 0.000000 0.000000 
-4.657180 71.665901 224.472290 175.271734 37.891334 176.941995 -0.257307 -2.459144 -25.908491 -8.103927 1.806880 23.621672 4.840081 12.445279 12.042315 0.000000 0.000000 0.000000 -10.347421 0.079925 16.719215 -6.415996 3.108262 24.182949 16.726199 14.492384 29.073817 0.000000 0.000000 0.000000 1.938590 -0.235435 3.808271 -3.560619 1.534838 -18.817364 4.000304 25.763006 27.108997 8.659800 -4.538907 -12.431957 0.000000 0.000000 0.000000 -19.732770 5.469547 -5.000963 -56.205380 10.769541 -11.270676 -2.025724 -16.039035 0.859862 0.000000 0.000000 0.000000 0.000000 0.000000 0.000000 23.544308 0.736378 -2.003001 57.574076 10.934973 0.137707 -0.805691 38.959773 0.978433 0.000000 0.000000 0.000000 0.000000 0.000000 0.000000 
-2.673685 72.260323 217.098953 174.573216 37.873751 175.317079 -3.598870 -2.244383 -18.447556 -8.215896 1.821587 23.100237 6.643226 14.725579 7.156050 0.000000 0.000000 0.000000 -9.036676 0.074883 6.410004 -7.746387 6.117617 44.379408 12.781749 8.466786 29.371121 0.000000 0.000000 0.000000 1.749633 -0.195237 3.231215 -3.482253 1.509707 -19.110551 1.827570 22.342339 27.007132 8.881702 -4.919640 -11.092925 0.000000 0.000000 0.000000 -18.922225 3.554162 -3.853910 -57.291639 9.292283 -10.840010 -0.076542 -14.658333 0.542122 0.000000 0.000000 0.000000 0.000000 0.000000 0.000000 23.604217 -0.440619 -2.701615 60.996646 7.562898 -1.588993 1.898868 39.404510 1.907869 0.000000 0.000000 0.000000 0.000000 0.000000 0.000000 
-0.606600 73.088837 210.362686 174.969201 35.338064 173.819360 -6.181197 -1.286330 -9.301322 -5.542589 0.911795 19.935477 4.905584 10.764025 2.272146 0.000000 0.000000 0.000000 -6.360733 0.329665 -4.121756 -7.088139 7.985107 60.090972 6.706236 0.858581 26.547859 0.000000 0.000000 0.000000 1.614876 -0.286859 4.989262 -3.812722 1.611366 -18.530238 -0.387728 15.954489 25.756665 6.955402 -3.929623 -9.416596 0.000000 0.000000 0.000000 -21.487084 2.397193 -3.605753 -53.430642 4.484345 -7.904288 -1.890433 -16.786839 0.881629 0.000000 0.000000 0.000000 0.000000 0.000000 0.000000 24.520511 -0.681192 -2.955672 61.124278 2.508642 -4.232564 1.250321 37.254723 1.586281 0.000000 0.000000 0.000000 0.000000 0.000000 0.000000 
1.631752 74.494453 203.886353 176.119265 30.816682 173.807801 -7.228539 -0.256096 -2.208827 -3.708993 0.383412 16.410499 3.580312 8.234705 2.478127 0.000000 0.000000 0.000000 -1.898426 1.031426 -11.826754 -6.193890 7.925176 64.156321 2.648232 -3.809598 22.363638 0.000000 0.000000 0.000000 0.567315 -0.277795 5.977433 -2.117262 1.112981 -18.423225 -2.437088 9.980654 25.754176 5.489593 -2.879966 -9.897696 0.000000 0.000000 0.000000 -20.956552 1.457014 -3.012975 -54.343168 -0.798989 -5.714944 -0.126679 -19.711934 0.741052 0.000000 0.000000 0.000000 0.000000 0.000000 0.000000 26.503986 -2.132618 -4.104082 59.916438 -4.114782 -7.468887 1.397407 34.481142 1.500176 0.000000 0.000000 0.000000 0.000000 0.000000 0.000000 
4.183640 75.376877 197.422791 177.963795 26.838460 174.250085 -6.523935 0.934592 5.728283 -1.631169 -0.084354 13.107332 1.564533 4.422855 2.940339 0.000000 0.000000 0.000000 1.266225 2.106708 -19.094516 -4.290727 5.854938 59.399711 0.250357 -6.292860 17.667568 0.000000 0.000000 0.000000 0.604222 -0.339375 7.263104 -0.826581 0.728336 -18.176659 -3.570424 4.193283 25.572615 4.360485 -2.197942 -9.374485 0.000000 0.000000 0.000000 -21.136083 2.079625 -3.380512 -54.496331 -6.458035 -3.178320 3.674521 -23.361929 0.113354 0.000000 0.000000 0.000000 0.000000 0.000000 0.000000 23.966067 -3.766124 -4.706604 61.440501 -10.170539 -10.817212 1.921777 30.895822 1.466021 0.000000 0.000000 0.000000 0.000000 0.000000 0.000000 
6.918821 75.437164 190.832520 178.773971 24.355073 174.707117 -6.668941 1.818983 11.500253 0.919536 -0.569316 10.921127 -1.386252 -0.449879 5.095070 0.000000 0.000000 0.000000 3.249254 3.072518 -24.196216 -3.872430 4.240858 46.667910 -1.905608 -10.161971 18.849608 0.000000 0.000000 0.000000 0.644109 -0.324541 6.882822 0.726188 0.268485 -18.229084 -4.734401 -1.214017 26.065502 3.660818 -1.609686 -10.410859 0.000000 0.000000 0.000000 -20.101944 1.537788 -2.944927 -53.819990 -12.630099 -0.345314 6.143942 -26.099823 -0.436216 0.000000 0.000000 0.000000 0.000000 0.000000 0.000000 22.105897 -5.196214 -5.223982 61.273946 -16.799618 -14.167461 0.507946 28.422828 1.009858 0.000000 0.000000 0.000000 0.000000 0.000000 0.000000 
9.851285 74.829926 183.957825 178.987605 21.109509 175.885629 -5.860639 2.408835 16.184325 0.585445 -0.485391 10.563203 -1.855952 -0.214210 7.602236 0.000000 0.000000 0.000000 3.440465 3.512242 -27.162486 -2.381835 2.291394 31.717825 -2.251271 -11.093413 20.854915 0.000000 0.000000 0.000000 -0.112220 -0.249097 6.288427 2.322942 -0.212255 -18.091332 -5.613294 -6.198238 25.543677 2.054673 -0.563268 -10.376247 0.000000 0.000000 0.000000 -18.795914 0.986655 -2.484309 -51.723461 -15.727835 0.998279 5.229426 -28.768703 -0.255401 0.000000 0.000000 0.000000 0.000000 0.000000 0.000000 20.225846 -6.689478 -5.716179 60.350318 -21.399841 -16.207936 1.128048 27.863062 1.130003 0.000000 0.000000 0.000000 0.000000 0.000000 0.000000 
13.069387 73.756119 176.606812 179.188031 18.507071 176.361908 -3.750558 2.566156 19.998156 1.635756 -0.799715 12.542371 -2.967981 -1.553653 9.094707 0.000000 0.000000 0.000000 2.680141 3.296305 -26.789952 -1.455807 1.329392 21.647413 -0.700073 -8.622908 20.680742 0.000000 0.000000 0.000000 0.418965 -0.239932 5.328022 2.702843 -0.348774 -17.637143 -5.997958 -9.320687 25.711473 1.118875 0.154594 -11.656997 0.000000 0.000000 0.000000 -18.619598 1.216688 -2.583346 -50.215766 -18.143735 1.971073 5.547141 -31.987867 -0.378118 0.000000 0.000000 0.000000 0.000000 0.000000 0.000000 19.645145 -7.173196 -5.868608 60.846038 -23.979203 -17.681484 -1.698427 28.526772 0.498027 0.000000 0.000000 0.000000 0.000000 0.000000 0.000000 
